<?xml version="1.0" encoding="UTF-8" standalone="no"?>
<svg
   xmlns:dc="http://purl.org/dc/elements/1.1/"
   xmlns:cc="http://creativecommons.org/ns#"
   xmlns:rdf="http://www.w3.org/1999/02/22-rdf-syntax-ns#"
   xmlns:svg="http://www.w3.org/2000/svg"
   xmlns="http://www.w3.org/2000/svg"
   xmlns:sodipodi="http://sodipodi.sourceforge.net/DTD/sodipodi-0.dtd"
   xmlns:inkscape="http://www.inkscape.org/namespaces/inkscape"
   version="1.1"
   id="Layer_1_2_"
   width="177.32861"
   height="112.51176"
   inkscape:version="0.91 r13725"
   sodipodi:docname="temp.svg">
  <metadata
     id="metadata3608">
    <rdf:RDF>
      <cc:Work
         rdf:about="">
        <dc:format>image/svg+xml</dc:format>
        <dc:type
           rdf:resource="http://purl.org/dc/dcmitype/StillImage" />
        <dc:title></dc:title>
      </cc:Work>
    </rdf:RDF>
  </metadata>
  <defs
     id="defs3606" />
  <sodipodi:namedview
     pagecolor="#ffffff"
     bordercolor="#666666"
     borderopacity="1"
     objecttolerance="10"
     gridtolerance="10"
     guidetolerance="10"
     inkscape:pageopacity="0"
     inkscape:pageshadow="2"
     inkscape:window-width="1088"
     inkscape:window-height="692"
     id="namedview3604"
     showgrid="false"
     inkscape:zoom="0.43235704"
     inkscape:cx="479.0163"
     inkscape:cy="118.68093"
     inkscape:window-x="0"
     inkscape:window-y="0"
     inkscape:window-maximized="0"
     inkscape:current-layer="Layer_1_2_"
     fit-margin-top="0"
     fit-margin-left="0"
     fit-margin-right="0"
     fit-margin-bottom="0" />
  <path
     inkscape:connector-curvature="0"
     style="fill:#ffffff;stroke:none"
     d="m 377.24855,-18.382064 0,2 45,0 c 16.6071,0 33.5691,0.30551 49,7.3124996 9.35004,4.2457 17.36004,10.6668 22.47504,19.6875004 12.397,21.8653 4.995,51.7468 -16.475,64.5471 -11.73124,6.9939 -24.67714,8.6249 -38.00004,9.5429 -20.5979,1.418 -41.3244,0.91 -62,0.91 l 0,47.000004 c 3.33725,-3.967 5.80744,-8.339 10.0008,-11.606 8.2497,-6.428 20.1709,-6.498 29.9992,-5.343 4.7185,0.554 19.3015,3.864 17.2485,10.953 -0.8017,2.768 -4.2276,6.772 -7.2524,7.035 -2.7517,0.238 -5.4904,-2.322 -7.9961,-3.189 -8.0047,-2.769 -23.6558,-3.279 -26.4128,7.154 -1.8285,6.919 3.1413,11.863 9.4128,13.315 9.0819,2.103 19.2695,0.393 25,-7.319 2.5834,2.638 9.0984,7.685 7.8079,11.96 -1.7806,5.898 -11.6335,8.206 -16.8079,9.116 -14.7799,2.601 -35.06049,-0.446 -40,-17.076 -1.98057,4.72 -1,10.92 -1,16 l 0,32 31,0 0,74 -31,0 0,162 485.00004,0 0,-236 89,0 c 14.402,0 29.704,-1.469 44,0.286 23.22901,2.853 46.80701,14.301 62.57501,31.753 15.726,17.408 26.01,38.469 28.255,61.961 0.723,7.564 0.17,15.404 0.17,23 0,13.504 0.423,26.787 -2.895,40 -8.066,32.114 -31.7,58.372 -62.105,70.988 -10.518,4.365 -21.59601,7.004 -33.00001,7.012 3.699,1.552 8.017,1 12.00001,1 l 20,0 74,0 0,-450.000004 -78,0 c 14.746,26.4870996 34.719,50.8526 51.67,76 6.071,9.0075 14.11,17.9675 18.33,28 l -23,0 c -3.419,0 -7.788,0.668 -10.907,-1.028 -6.115,-3.3261 -7.365,-13.6847 -14.277,-15.6541 -5.282,-1.5047 -12.346,-0.3179 -17.816,-0.3179 -11.293,0 -22.70401,-0.4819 -33.98501,0.0193 -9.728,0.4322 -9.363,13.0897 -17.199,16.3777 -3.129,1.312 -7.496,0.603 -10.816,0.603 l -22,0 c 3.153,-8.1975 9.791,-15.6861 14.667,-23 10.665,-15.9976 21.04,-32.2398 32.053,-48 7.161,-10.2485004 16.837,-21.2769004 21.28001,-33 l -358.00001,0 c 4.985,13.1531996 16.243,25.4974996 24.28,37 15.481,22.1552 30.605,44.5938 45.72,67 l -24,0 c -3.359,0 -7.775,0.7 -10.816,-1.028 -7.209,-4.0961 -7.694,-15.5368 -17.188,-15.9527 -10.954,-0.4799 -22.031,-0.0193 -32.996,-0.0193 -5.585,0 -12.539,-1.1105 -17.96,0.3179 -7.241,1.9083 -8.377,12.0616 -14.366,15.6541 -2.937,1.763 -7.397,1.028 -10.674,1.028 l -23,0 c 4.568,-9.6555 11.751,-18.1422 17.667,-27 l 34,-51.0000004 c 5.767,-8.6466 12.272,-16.90872 17.333,-25.9999996 l -257.00004,0 z"
     id="path3588" />
  <path
     inkscape:connector-curvature="0"
     style="fill:#231f20;stroke:none"
     d="m 47.063594,26.011656 6,0 c 0.796,0 1.9145,0.19075 2.6205,-0.257 1.43175,-0.90813 1.72675,-3.19775 3.3895,-3.84215 1.135,-0.43988 2.78875,-0.15085 3.99,-0.15085 2.82475,0 5.678,-0.11788 8.49975,0.005 2.55625,0.11115 2.50225,3.23788 4.54625,4.09443 0.78275,0.32775 1.8735,0.15075 2.704,0.15075 l 6,0 c -1.017,-2.14983 -2.59975,-4.02805 -3.91675,-6 -3.0295,-4.53618 -6.2195,-8.9647 -9.25,-13.5000004 -1.066,-1.5954 -2.18,-3.15683 -3.25,-4.74981 -0.4875,-0.72608 -0.923,-1.55564005 -1.8565,-1.71316005 -3.02825,-0.5109 -4.45625,3.10507005 -5.89075,5.21297005 -3.09875,4.55392 -6.11,9.1694004 -9.16925,13.7500004 -1.47275,2.20487 -3.60525,4.45325 -4.41675,7 m 92.749996,0 5.75,0 c 0.81025,0 1.90975,0.185 2.6685,-0.15075 1.9665,-0.87008 1.82325,-3.9845 4.3325,-4.09443 2.7385,-0.11997 5.50775,-0.005 8.249,-0.005 1.31,0 2.95725,-0.26658 4.22675,0.0795 1.76625,0.48163 2.0595,3.0544 3.56925,3.91353 0.75975,0.43225 1.86475,0.257 2.704,0.257 l 6,0 c -0.62425,-2.40695 -2.84225,-4.71675 -4.2435,-6.75 -3.09525,-4.49053 -6.221,-8.96925 -9.25625,-13.5000004 -1.202,-1.79413 -2.83925,-5.65638005 -5.25025,-5.74499005 -2.71625,-0.0998 -4.1745,3.76609005 -5.50025,5.74499005 -3.074,4.5884704 -6.1855,9.1535504 -9.24975,13.7500004 -1.304,1.95605 -3.456,4.20525 -4,6.5 M 0.063594,0.51168555 l 0,25.50000045 c 5.2516,0 10.51803,0.13275 15.75,-0.2275 3.33073,-0.2295 6.5672,-0.63725 9.5,-2.38573 7.9855,-4.76085 6.682,-17.3432504 -1.5,-21.0586504 -3.85772,-1.75175005 -8.09825,-1.82812005 -12.25,-1.82812005 l -11.5,0 m 97.25,0 0,7.25000005 10.999996,0 0,18.2500004 7.75,0 0,-18.2500004 11,0 0,-7.25000005 -29.749996,0 z"
     id="path3590" />
  <path
     inkscape:connector-curvature="0"
     style="fill:#ffffff;stroke:none"
     d="m 7.813594,7.7616556 0,11.0000004 c 3.9167,0 9.5002,0.8756 12.98998,-1.30613 2.50432,-1.56567 2.64912,-6.5093 0.24902,-8.2313004 -3.41765,-2.45207 -9.28272,-1.46257 -13.239,-1.46257 m 57.75,3.5000004 c -0.846,1.10077 -1.6555,2.24337 -2.25,3.5 l 4.75,0 c -0.613,-1.2959 -1.42525,-2.54535 -2.5,-3.5 m 92.499996,0 c -0.6565,1.17927 -1.52,2.23377 -2,3.5 l 4.75,0 c -0.674,-1.21083 -1.475,-2.35118 -2.25,-3.5 l -0.5,0 z"
     id="path3592" />
  <path
     inkscape:connector-curvature="0"
     style="fill:#231f20;stroke:none"
     d="m 12.813594,40.511656 c -0.66597,0.4535 -1.2824,1.01725 -2,1.38975 -1.85965,0.965 -5.53315,1.024 -6.6059,-1.1505 -1.76834,-3.58475 3.92143,-4.28675 6.1059,-3.52675 0.71403,0.2485 1.4713,1.0355 2.24903,0.99575 0.9063,-0.046 2.16177,-1.53825 2.02432,-2.4475 -0.27335,-1.80825 -3.6557,-2.1535 -5.02335,-2.33125 -2.4219,-0.3145 -5.57095,-0.0505 -7.49614,1.624 -3.05719,2.65875 -2.72275,8.043 0.99614,9.9475 2.624,1.34375 6.24498,1.33125 9,0.40825 0.90065,-0.30175 2.67295,-1.00925 2.70198,-2.163 0.0252,-1.0025 -1.3224,-2.08825 -1.95198,-2.74625 m 5.75,5.25 c 1.19303,0 2.85623,0.29775 3.97665,-0.15075 0.94388,-0.378 1.26145,-1.5005 2.28338,-1.76975 1.33997,-0.353 3.10872,-0.1045 4.48972,-0.0782 1.71425,0.0323 1.7425,1.25625 3.08175,1.848 1.1225,0.496 2.95575,0.15075 4.1685,0.15075 -1.31975,-3.48225 -4.3245,-6.6795 -6.414,-9.75 -0.65225,-0.95875 -1.41675,-2.8055 -2.81625,-2.69825 -1.26625,0.097 -2.07125,2.0255 -2.68642,2.94825 -1.98875,2.98325 -4.8121,6.146 -6.08333,9.5 m 83.249996,-12.5 0,12.5 3.75,0 0,-6.25 c 1.744,1.50925 3.65525,2.83475 5.5,4.21825 1.54775,1.161 2.7465,2.2595 4.75,2.28175 l 0,-12.5 -3.75,0 0,6 c -1.9945,-1.242 -3.8665,-2.75 -5.75,-4.1565 -1.45375,-1.0855 -2.63125,-2.07175 -4.5,-2.0935 m -60.499996,0.25 0,12.25 4,0 0,-4 c 0.9455,0 2.12975,-0.183 2.999,0.257 1.54,0.77925 2.18725,2.70375 3.751,3.486 1.3335,0.667 3.537,0.257 5,0.257 -1.13825,-1.635 -2.90975,-2.9485 -3.75,-4.75 2.687,-1.2645 3.021,-5.3155 0.24625,-6.75 -1.5245,-0.78825 -3.33025,-0.75 -4.99625,-0.75 l -7.25,0 m 20.75,0 0,12.25 3.75,0 0,-3.5 c 2.56425,0 5.9205,0.41825 8.24625,-0.8895 2.36225,-1.328 2.84475,-5.25925 0.48025,-6.86175 -1.41,-0.95575 -3.33975,-0.998 -4.9765,-0.99875 l -7.5,0 m 20.5,0 0,12.25 12.75,0 0,-3.5 -9,0 0,-1 6.25,0 0,-3.5 -6.25,0 0,-0.5 8.75,0 0,-3.75 -12.5,0 m 39.499996,0 0,3.5 5.25,0 0,8.75 3.75,0 0,-8.75 5.25,0 0,-3.5 -14.25,0 m 20.5,0 0,12.25 3.75,0 0,-4 c 0.94875,0 2.12625,-0.18 3,0.257 1.56325,0.78175 2.22875,2.7045 3.75375,3.486 1.3165,0.675 3.546,0.257 4.99625,0.257 -1.0205,-1.76525 -2.66775,-3.01975 -3.75,-4.75 2.7675,-0.9615 3.058,-5.207 0.49625,-6.64575 -1.57525,-0.8845 -3.5,-0.85425 -5.24625,-0.85425 l -7,0 m 17.5,0 c 1.432,3.07475 5.05025,4.708 6.49675,7.75 0.59325,1.2475 0.25325,3.14525 0.25325,4.5 l 4,0 c 0,-1.37425 -0.319,-3.217 0.2345,-4.5 1.305,-3.02425 4.873,-4.74625 6.2655,-7.75 -1.3535,0 -3.2185,-0.332 -4.49625,0.15075 -1.44825,0.5475 -3.063,2.76775 -3.75375,4.09925 -1.189,-1.189 -2.68625,-3.49225 -4.25975,-4.09925 -1.3305,-0.513 -3.3265,-0.15075 -4.74025,-0.15075 z"
     id="path3594" />
  <path
     inkscape:connector-curvature="0"
     style="fill:#ffffff;stroke:none"
     d="m 45.313594,37.011656 0,1.25 c 2.053,0 4.2435,0.22775 6.25,-0.25 l 0,-0.5 c -1.98,-0.7415 -4.16675,-0.5 -6.25,-0.5 m 20.5,0 0,1.75 c 1.7125,0 5.87825,0.72825 6.25,-1.5 -2.089,-0.264 -4.14475,-0.25 -6.25,-0.25 m 80.499996,0 0,1.25 c 1.56675,0 5.63275,0.7555 6.25,-1 -2.089,-0.264 -4.14475,-0.25 -6.25,-0.25 m -118.999996,1.75 -0.75,1.5 1.75,0 c -0.26175,-0.6165 -0.529,-1.024 -1,-1.5 z"
     id="path3596" />
  <path
     inkscape:connector-curvature="0"
     style="fill:#231f20;stroke:none"
     d="m 0.063594,53.511656 0,18.5 7.75,0 0,-18.5 -7.75,0 m 15.25,0 0,23.5 7.75,0 0,-23.5 -7.75,0 m 15,0 0,28.5 7.75,0 0,-28.5 -7.75,0 m 15.25,0 0,33.75 7.75,0 0,-33.75 -7.75,0 m 15,0 0,38.75 7.75,0 0,-38.75 -7.75,0 m 15.25,0 0,43.75 7.75,0 0,-43.75 -7.75,0 m 15.25,0 0,48.750004 7.75,0 0,-48.750004 -7.75,0 m 14.999996,0 0,53.750004 7.75,0 0,-53.750004 -7.75,0 m 15.25,0 0,59.000004 22.75,0 c 7.48325,0 14.64825,0.0795 21.25,-4.0165 5.92275,-3.67475 10.22625,-9.880254 11.54875,-16.733504 0.56,-2.901 0.45125,-5.81 0.45125,-8.75 0,-3.015 0.14275,-6.027 -0.452,-9 -1.50075,-7.50275 -6.49525,-14.16775 -13.298,-17.6855 -6.01675,-3.11125 -12.182,-2.8145 -18.75,-2.8145 l -23.5,0 z"
     id="path3598" />
  <path
     inkscape:connector-curvature="0"
     style="fill:#ffffff;stroke:none"
     d="m 129.06359,61.261656 0,43.250004 17.25,0 c 4.75575,0 9.147,0.227 13.5,-2.02725 4.562,-2.36225 8.00875,-6.703504 9.191,-11.722754 0.6255,-2.656 0.559,-5.29175 0.559,-8 0,-7.52075 -1.64,-14.469 -8.5,-18.7335 -4.72075,-2.93475 -9.6605,-2.7665 -15,-2.7665 l -17,0 z"
     id="path3600" />
  <path
     inkscape:connector-curvature="0"
     style="fill:#231f20;stroke:none"
     d="m 136.56359,68.761656 0,28.5 10.5,0 c 2.19,0 4.59025,0.27325 6.75,-0.11625 3.7395,-0.674 6.79175,-3.578 7.9775,-7.13375 0.408,-1.224 0.519,-2.46925 0.5225,-3.75 l -7.75,0 c -1.08575,4.51625 -6.67475,3.25 -10.25,3.25 l 0,-13 c 2.356,0 5.49425,-0.54525 7.75,0.16325 1.51175,0.47475 1.6535,2.1015 2.8545,2.686 0.66525,0.3235 1.6775,0.15075 2.3955,0.15075 l 5,0 c -0.0405,-4.8855 -3.1365,-9.344 -8,-10.525 -1.98675,-0.4825 -4.21775,-0.225 -6.25,-0.225 l -11.5,0 z"
     id="path3602" />
</svg>
